<?xml version="1.0" encoding="utf-8"?>
<!-- Generator: Adobe Illustrator 16.0.0, SVG Export Plug-In . SVG Version: 6.00 Build 0)  -->
<!DOCTYPE svg PUBLIC "-//W3C//DTD SVG 1.1//EN" "http://www.w3.org/Graphics/SVG/1.1/DTD/svg11.dtd">
<svg version="1.1" id="Layer_1" xmlns="http://www.w3.org/2000/svg" xmlns:xlink="http://www.w3.org/1999/xlink" x="0px" y="0px"
	 width="255px" height="255px" viewBox="0 0 255 255" enable-background="new 0 0 255 255" xml:space="preserve">
<line fill="#F4EA00" x1="216.001" y1="51.668" x2="201.668" y2="-115.999"/>
<path fill="#F4EA00" d="M134.042,128.971l115.096-17.214C241.636,51.55,190.281,4.958,128.042,4.958C60.641,4.958,6,59.599,6,127
	s54.641,122.042,122.042,122.042c60.942,0,111.447-44.671,120.569-103.054L134.042,128.971z"/>
<path fill="#F4EA00" d="M617.308,221.312l109.36-55.482C706.703,125.632,665.235,98,617.308,98
	c-67.401,0-122.042,54.641-122.042,122.042s54.641,122.042,122.042,122.042c47.24,0,88.208-26.844,108.492-66.106L617.308,221.312z"
	/>
</svg>
